<svg xmlns="http://www.w3.org/2000/svg" width="67.107" height="46.45" viewBox="0 0 67.107 46.45">
  <g id="bg-budget" transform="translate(-1519.04 -397.886)">
    <path id="Контур_167" data-name="Контур 167" d="M93.765,663.715c12.993-5.606,7.031-16.549-2.491-15.616-12.413,1.237-18.5.8-30.643-2.6-13.334-3.716-24.341-11.94-26.175-10.627-2.258,1.6,7.872,20.421,21.718,26.723C65.016,665.621,81.2,669.137,93.765,663.715Z" transform="translate(1484.898 -222.154)" fill="#ffdf00"/>
    <path id="Контур_168" data-name="Контур 168" d="M127.788,639.715c3.2-4.08,3.039-8.156.881-8.981-2-.769-4.877.4-7.884,4.056-6.074,7.364-10.811,9.173-13.83,10.3-1.726.653-1.241,2.507.549,2.6C111.559,647.923,123.207,645.521,127.788,639.715Z" transform="translate(1449.883 -232.623)" fill="#0058a4"/>
  </g>
</svg>
