<svg xmlns="http://www.w3.org/2000/svg" width="626.669" height="667.813" viewBox="0 0 626.669 667.813">
  <g id="bg-footer" transform="translate(-1311 -4842.436)" opacity="0.04">
    <path id="Контур_203" data-name="Контур 203" d="M461.047,352.095c100.918,11.416,107.793-48.818,16.147-76.759C249.75,206.019,5.024,35.66,5.024,35.66c-8.073,37.717-7,81.553,7.569,111.575C82.731,294.447,381.7,343.138,461.047,352.095Z" transform="translate(1310.996 4806.775)" fill="#fff"/>
    <path id="Контур_204" data-name="Контур 204" d="M475.224,240.691c59.92-11.542,68.813-55.441,5.8-56.324C254.088,181.214,4,78.09,4,78.09c11.921,52.6,40.809,96.186,82.627,121.982C219.649,282.445,458.131,244.1,475.224,240.691Z" transform="translate(1332.197 5031.965)" fill="#fff"/>
    <path id="Контур_205" data-name="Контур 205" d="M293.333,227.636a231.29,231.29,0,0,0,105.9-76.065c18.418-24.472,9.02-53.612-20.184-41.25S264.445,170.367,30,173.835c24.536,33.113,84.708,77.075,134.41,77.075a372.836,372.836,0,0,0,128.923-23.273Z" transform="translate(1470.194 5187.431)" fill="#fff"/>
    <path id="Контур_206" data-name="Контур 206" d="M73.89,265.6c25.23,14.633,93.349,22.958,122.426,4.037,36.268-23.463,42.07-108.737,36.268-137.625s-23.274-14.443-31.537,0C201.362,132.14,144.343,229.776,73.89,265.6Z" transform="translate(1703.14 5229.634)" fill="#fff"/>
  </g>
</svg>
