<svg xmlns="http://www.w3.org/2000/svg" width="214.089" height="149.152" viewBox="0 0 214.089 149.152">
  <g id="bg-news-page" transform="translate(-1411.911 -943.463)">
    <path id="Контур_114" data-name="Контур 114" d="M471.863,259.24c-13.594,18.222-35.688,20.405-54.331,16.488-12.861-2.7-26.506-12.508-28.724-23.356-3.559-17.381,16.954-7.238,25.983-2.7C431.314,257.966,448.632,259.547,471.863,259.24Z" transform="translate(1221.846 611.833) rotate(31)" fill="#ffdf00"/>
    <path id="Контур_197" data-name="Контур 197" d="M1.795,22.586c-5.2,10.23,1.541,23.038,11.874,21.608C25.106,42.61,29.31,32.312,49.394,24.8c19.69-7.354,40.237-7,41.315-9.768,1.4-3.57-18.577-17.978-46.649-14.485C18.086,3.778,6.572,13.169,1.795,22.586Z" transform="translate(1626 986.953) rotate(169)" fill="#0058a4"/>
  </g>
</svg>
