<svg xmlns="http://www.w3.org/2000/svg" width="681.713" height="731.705" viewBox="0 0 681.713 731.705">
  <g id="bg-program" transform="translate(0 1.02)" opacity="0.15">
    <g id="Слой_1" data-name="Слой 1" transform="translate(0 -1.02)">
      <path id="Контур_158" data-name="Контур 158" d="M397.09,731.575c103.237-3.481,165.99-48.55,207.4-117.236h0c28.15-46.833,43.92-95.854,77.224-126.551a277.343,277.343,0,0,0-39.471-8.8c-3.5-.565-6.608-.847-9.89-1.247-86.343-10.373-90.55,37.166-117.995,37.166-31.982,0-47.026-50.22-50.771-144.593s-82.753-140.476-82.753-140.476l-12.269-8.068L177.972,96.469S55.264,19.174,30.837,1.932l-3-1.905h0a2,2,0,0,1-.176.588c0-.188-.22-.423-.308-.635-2.2,7.315-3.789,14.913-5.683,22.37s-4.053,14.984-5.727,22.605c-.264,1.153-.441,2.352-.683,3.5C12.511,61.185,10.154,73.84,8.3,86.848A689.628,689.628,0,0,0,0,192.464C0,316.1,31.806,429.806,84.911,520.72,160.792,650.752,293.853,735.151,397.09,731.575Z" transform="translate(0 0.02)" fill="#003da5"/>
    </g>
  </g>
</svg>
