<svg xmlns="http://www.w3.org/2000/svg" width="120" height="97" viewBox="0 0 120 97">
  <g id="fond-2" transform="translate(0 -23)">
    <g id="charity" transform="translate(0 0)">
      <path id="Контур_174" data-name="Контур 174" d="M79.335,56.834c-6.576-2.114-18.247-9.289-20.926-22.328-.189.148-.386.283-.571.438A21.222,21.222,0,0,0,23,51.158C23,82.98,56.932,93.681,57.274,93.787a1.956,1.956,0,0,0,1.128,0c.341-.105,34.027-10.739,34.263-42.3a33.687,33.687,0,0,1-9.835,5.337,5.826,5.826,0,0,1-3.5.012Z" transform="translate(19.58 26.13)" fill="#d8e1f1"/>
      <path id="Контур_175" data-name="Контур 175" d="M69.571,23a11.832,11.832,0,0,0-7.215,2.439A11.832,11.832,0,0,0,55.14,23,12.325,12.325,0,0,0,43,35.477c0,18.077,18.584,24.148,18.773,24.208a1.952,1.952,0,0,0,1.164,0c.188-.06,18.773-6.132,18.773-24.208A12.325,12.325,0,0,0,69.571,23Zm8.236,13.652a1.935,1.935,0,1,1-3.865-.208c.017-.317.027-.639.027-.968a4.58,4.58,0,0,0-4.4-4.735,1.935,1.935,0,1,1,0-3.871,8.452,8.452,0,0,1,8.268,8.606q0,.6-.032,1.176Z" transform="translate(38.289 19.582)" fill="#d8e1f1"/>
      <g id="Сгруппировать_15" data-name="Сгруппировать 15" transform="translate(-1 21.5)">
        <path id="Контур_220" data-name="Контур 220" d="M84.457,83.254H81.05V27.048a5.11,5.11,0,0,0-5.11-5.11h-5.11V6.61a5.11,5.11,0,0,0-5.11-5.11H21.438a5.11,5.11,0,0,0-5.11,5.11V32.158h-5.11a5.11,5.11,0,0,0-5.11,5.11V83.254H2.7a1.7,1.7,0,0,0,0,3.406H84.457a1.7,1.7,0,0,0,0-3.406ZM77.644,27.048V83.254H50.393V37.267a5.11,5.11,0,0,0-5.11-5.11H36.767v-5.11a1.7,1.7,0,0,1,1.7-1.7h37.47A1.7,1.7,0,0,1,77.644,27.048ZM19.735,6.61a1.7,1.7,0,0,1,1.7-1.7H65.722a1.7,1.7,0,0,1,1.7,1.7V21.938H38.47a5.11,5.11,0,0,0-5.11,5.11v5.11H19.735ZM9.516,37.267a1.7,1.7,0,0,1,1.7-1.7H45.283a1.7,1.7,0,0,1,1.7,1.7V83.254H9.516Z" fill="#151a6a"/>
        <path id="Контур_221" data-name="Контур 221" d="M11.7,25.5A1.7,1.7,0,0,0,10,27.2V30.61a1.7,1.7,0,0,0,3.406,0V27.2A1.7,1.7,0,0,0,11.7,25.5Z" transform="translate(6.329 16.877)" fill="#151a6a"/>
        <path id="Контур_222" data-name="Контур 222" d="M17.7,25.5A1.7,1.7,0,0,0,16,27.2V30.61a1.7,1.7,0,0,0,3.406,0V27.2A1.7,1.7,0,0,0,17.7,25.5Z" transform="translate(10.548 16.877)" fill="#151a6a"/>
        <path id="Контур_223" data-name="Контур 223" d="M23.7,25.5A1.7,1.7,0,0,0,22,27.2V30.61a1.7,1.7,0,0,0,3.406,0V27.2A1.7,1.7,0,0,0,23.7,25.5Z" transform="translate(14.767 16.877)" fill="#151a6a"/>
        <path id="Контур_224" data-name="Контур 224" d="M11.7,31.5A1.7,1.7,0,0,0,10,33.2V36.61a1.7,1.7,0,1,0,3.406,0V33.2A1.7,1.7,0,0,0,11.7,31.5Z" transform="translate(6.329 21.096)" fill="#151a6a"/>
        <path id="Контур_225" data-name="Контур 225" d="M17.7,31.5A1.7,1.7,0,0,0,16,33.2V36.61a1.7,1.7,0,1,0,3.406,0V33.2A1.7,1.7,0,0,0,17.7,31.5Z" transform="translate(10.548 21.096)" fill="#151a6a"/>
        <path id="Контур_226" data-name="Контур 226" d="M23.7,31.5A1.7,1.7,0,0,0,22,33.2V36.61a1.7,1.7,0,1,0,3.406,0V33.2A1.7,1.7,0,0,0,23.7,31.5Z" transform="translate(14.767 21.096)" fill="#151a6a"/>
        <path id="Контур_227" data-name="Контур 227" d="M11.7,37.5A1.7,1.7,0,0,0,10,39.2V42.61a1.7,1.7,0,1,0,3.406,0V39.2A1.7,1.7,0,0,0,11.7,37.5Z" transform="translate(6.329 25.315)" fill="#151a6a"/>
        <path id="Контур_228" data-name="Контур 228" d="M17.7,37.5A1.7,1.7,0,0,0,16,39.2V42.61a1.7,1.7,0,1,0,3.406,0V39.2A1.7,1.7,0,0,0,17.7,37.5Z" transform="translate(10.548 25.315)" fill="#151a6a"/>
        <path id="Контур_229" data-name="Контур 229" d="M23.7,37.5A1.7,1.7,0,0,0,22,39.2V42.61a1.7,1.7,0,1,0,3.406,0V39.2A1.7,1.7,0,0,0,23.7,37.5Z" transform="translate(14.767 25.315)" fill="#151a6a"/>
        <path id="Контур_230" data-name="Контур 230" d="M35.7,19.5A1.7,1.7,0,0,0,34,21.2V24.61a1.7,1.7,0,0,0,3.406,0V21.2A1.7,1.7,0,0,0,35.7,19.5Z" transform="translate(23.206 12.658)" fill="#151a6a"/>
        <path id="Контур_231" data-name="Контур 231" d="M40,21.2V24.61a1.7,1.7,0,0,0,3.406,0V21.2A1.7,1.7,0,0,0,40,21.2Z" transform="translate(27.425 12.658)" fill="#151a6a"/>
        <path id="Контур_232" data-name="Контур 232" d="M35.7,25.5A1.7,1.7,0,0,0,34,27.2V30.61a1.7,1.7,0,0,0,3.406,0V27.2A1.7,1.7,0,0,0,35.7,25.5Z" transform="translate(23.206 16.877)" fill="#151a6a"/>
        <path id="Контур_233" data-name="Контур 233" d="M41.7,25.5A1.7,1.7,0,0,0,40,27.2V30.61a1.7,1.7,0,0,0,3.406,0V27.2A1.7,1.7,0,0,0,41.7,25.5Z" transform="translate(27.425 16.877)" fill="#151a6a"/>
        <path id="Контур_234" data-name="Контур 234" d="M35.7,31.5A1.7,1.7,0,0,0,34,33.2V36.61a1.7,1.7,0,1,0,3.406,0V33.2A1.7,1.7,0,0,0,35.7,31.5Z" transform="translate(23.206 21.096)" fill="#151a6a"/>
        <path id="Контур_235" data-name="Контур 235" d="M41.7,31.5A1.7,1.7,0,0,0,40,33.2V36.61a1.7,1.7,0,1,0,3.406,0V33.2A1.7,1.7,0,0,0,41.7,31.5Z" transform="translate(27.425 21.096)" fill="#151a6a"/>
        <path id="Контур_236" data-name="Контур 236" d="M35.7,37.5A1.7,1.7,0,0,0,34,39.2V42.61a1.7,1.7,0,1,0,3.406,0V39.2A1.7,1.7,0,0,0,35.7,37.5Z" transform="translate(23.206 25.315)" fill="#151a6a"/>
        <path id="Контур_237" data-name="Контур 237" d="M41.7,37.5A1.7,1.7,0,0,0,40,39.2V42.61a1.7,1.7,0,1,0,3.406,0V39.2A1.7,1.7,0,0,0,41.7,37.5Z" transform="translate(27.425 25.315)" fill="#151a6a"/>
        <path id="Контур_238" data-name="Контур 238" d="M17.7,6.5A1.7,1.7,0,0,0,16,8.2V11.61a1.7,1.7,0,1,0,3.406,0V8.2A1.7,1.7,0,0,0,17.7,6.5Z" transform="translate(10.548 3.516)" fill="#151a6a"/>
        <path id="Контур_239" data-name="Контур 239" d="M17.7,13.5A1.7,1.7,0,0,0,16,15.2V18.61a1.7,1.7,0,0,0,3.406,0V15.2A1.7,1.7,0,0,0,17.7,13.5Z" transform="translate(10.548 8.438)" fill="#151a6a"/>
        <path id="Контур_240" data-name="Контур 240" d="M23.7,13.313a1.7,1.7,0,0,0,1.7-1.7V8.2A1.7,1.7,0,0,0,22,8.2V11.61A1.7,1.7,0,0,0,23.7,13.313Z" transform="translate(14.767 3.516)" fill="#151a6a"/>
        <path id="Контур_241" data-name="Контур 241" d="M29.7,13.313a1.7,1.7,0,0,0,1.7-1.7V8.2A1.7,1.7,0,0,0,28,8.2V11.61A1.7,1.7,0,0,0,29.7,13.313Z" transform="translate(18.986 3.516)" fill="#151a6a"/>
        <path id="Контур_242" data-name="Контур 242" d="M35.7,13.313a1.7,1.7,0,0,0,1.7-1.7V8.2A1.7,1.7,0,0,0,34,8.2V11.61A1.7,1.7,0,0,0,35.7,13.313Z" transform="translate(23.206 3.516)" fill="#151a6a"/>
      </g>
    </g>
  </g>
</svg>
