<svg id="font-1" xmlns="http://www.w3.org/2000/svg" width="120" height="120" viewBox="0 0 120 120">
  <g id="Сгруппировать_2" data-name="Сгруппировать 2" transform="translate(46.452 46.454)">
    <path id="Контур_180" data-name="Контур 180" d="M39.419,40.414l-5.005,5.005h5.005Z" transform="translate(-16.193 -10.583)" fill="#d8e1f1"/>
    <path id="Контур_181" data-name="Контур 181" d="M73.645,39H44.613v9.677a1.934,1.934,0,0,1-1.935,1.935H33V68.032a1.937,1.937,0,0,0,1.935,1.936h38.71a1.937,1.937,0,0,0,1.935-1.935v-27.1A1.937,1.937,0,0,0,73.645,39ZM69.774,66.1H38.806a1.935,1.935,0,1,1,0-3.871H69.774a1.935,1.935,0,0,1,0,3.871Zm0-7.742H38.806a1.935,1.935,0,0,1,0-3.871H69.774a1.935,1.935,0,0,1,0,3.871Zm0-7.742H54.29a1.935,1.935,0,1,1,0-3.871H69.774a1.935,1.935,0,0,1,0,3.871Z" transform="translate(-17.516 -11.905)" fill="#d8e1f1"/>
    <path id="Контур_182" data-name="Контур 182" d="M92.742,36.612H56.769L45.723,25.566a1.937,1.937,0,0,0-3.3,1.368v9.677H30.806A5.813,5.813,0,0,0,25,42.418V92.741a5.813,5.813,0,0,0,5.806,5.806H92.742a5.813,5.813,0,0,0,5.806-5.806V42.418a5.813,5.813,0,0,0-5.806-5.806ZM86.935,81.128a5.813,5.813,0,0,1-5.806,5.806H42.419a5.813,5.813,0,0,1-5.806-5.806V61.773a1.945,1.945,0,0,1,.57-1.371L48.79,48.794a1.945,1.945,0,0,1,1.371-.57H81.129a5.813,5.813,0,0,1,5.806,5.806Z" transform="translate(-25 -25.001)" fill="#d8e1f1"/>
  </g>
  <path id="Контур_183" data-name="Контур 183" d="M91.968,12.613H62.935V6.806A5.813,5.813,0,0,0,57.129,1H41.645a5.813,5.813,0,0,0-5.806,5.806v5.806H6.806A5.813,5.813,0,0,0,1,18.419V80.355a5.813,5.813,0,0,0,5.806,5.806H91.968a5.813,5.813,0,0,0,5.806-5.806V18.419a5.813,5.813,0,0,0-5.806-5.806ZM39.71,6.806a1.937,1.937,0,0,1,1.935-1.935H57.129a1.937,1.937,0,0,1,1.935,1.935v5.806H39.71Zm-32.9,9.677H91.968A1.937,1.937,0,0,1,93.9,18.419V47.927L57.129,58.434V58.1a4.843,4.843,0,0,0-4.839-4.839H46.484A4.843,4.843,0,0,0,41.645,58.1v.337L4.871,47.927V18.419a1.937,1.937,0,0,1,1.935-1.935ZM53.258,58.1V63.9a.97.97,0,0,1-.968.968H46.484a.97.97,0,0,1-.968-.968V58.1a.97.97,0,0,1,.968-.968H52.29A.97.97,0,0,1,53.258,58.1ZM91.968,82.29H6.806a1.937,1.937,0,0,1-1.935-1.935v-28.4L41.645,62.46V63.9a4.843,4.843,0,0,0,4.839,4.839H52.29A4.843,4.843,0,0,0,57.129,63.9V62.46L93.9,51.954v28.4a1.937,1.937,0,0,1-1.935,1.936Z" transform="translate(-1 -1)" fill="#151a6a"/>
</svg>
