<svg xmlns="http://www.w3.org/2000/svg" width="120.72" height="109.72" viewBox="0 0 120.72 109.72">
  <g id="fond-3" transform="translate(-438.473 -1606.394)">
    <g id="gear-option" transform="translate(481.62 1613.481)">
      <g id="Сгруппировать_40" data-name="Сгруппировать 40" transform="translate(-6 20.762)">
        <g id="Сгруппировать_39" data-name="Сгруппировать 39">
          <path id="Контур_307" data-name="Контур 307" d="M72.507,34.65l-.4-.142L70.557,30.8l.168-.381c4.7-10.667,4.379-10.986,3.6-11.759l-6.274-6.12a1.675,1.675,0,0,0-1.1-.433c-.353,0-1.422,0-10.688,4.2l-.372.167-3.823-1.539-.153-.381c-4.357-10.79-4.8-10.79-5.888-10.79H37.17c-1.08,0-1.572,0-5.613,10.808l-.152.393-3.8,1.55-.364-.151c-6.272-2.644-9.934-3.985-10.889-3.985a1.682,1.682,0,0,0-1.1.428l-6.28,6.138c-.8.786-1.127,1.115,3.823,11.56l.182.387-1.555,3.7-.381.147C0,39.007,0,39.423,0,40.535v8.682c0,1.114,0,1.577,11.064,5.542l.4.14,1.555,3.691-.167.377c-4.7,10.672-4.405,10.961-3.6,11.758l6.264,6.129a1.724,1.724,0,0,0,1.1.433c.351,0,1.417,0,10.69-4.195l.371-.174L31.5,74.465l.149.383c4.36,10.786,4.808,10.786,5.893,10.786H46.4c1.113,0,1.574,0,5.618-10.816l.151-.394,3.809-1.54.363.148c6.267,2.652,9.927,3.99,10.875,3.99a1.682,1.682,0,0,0,1.1-.428l6.29-6.151c.791-.79,1.121-1.113-3.838-11.548L70.59,58.5l1.552-3.686.371-.145c11.06-4.29,11.06-4.708,11.06-5.821V40.174C83.573,39.06,83.573,38.6,72.507,34.65ZM41.786,58.779A14.078,14.078,0,1,1,56.142,44.7,14.24,14.24,0,0,1,41.786,58.779Z" transform="translate(0 -3.762)" fill="#d8e1f1"/>
        </g>
      </g>
    </g>
    <g id="group_1_" data-name="group (1)" transform="translate(438.473 1514.21)">
      <g id="Сгруппировать_42" data-name="Сгруппировать 42" transform="translate(37.505 92.184)">
        <g id="Сгруппировать_41" data-name="Сгруппировать 41" transform="translate(0 0)">
          <path id="Контур_308" data-name="Контур 308" d="M196.257,140.159l-11.328-5.035a2.219,2.219,0,0,1-1.317-2.027v-3.111a16.509,16.509,0,0,0,6.251-12.933v-4.379a4.04,4.04,0,0,0,2.084-3.531v-.425a16.554,16.554,0,0,0-16.535-16.535h-4.167a16.554,16.554,0,0,0-16.535,16.535v3.856a4.088,4.088,0,0,0,1.556,3.276,3.8,3.8,0,0,0,.528.342v.861a16.508,16.508,0,0,0,6.251,12.933V133.1a2.22,2.22,0,0,1-1.317,2.027L150.4,140.159a10.293,10.293,0,0,0-6.107,9.4v25.838a1.949,1.949,0,0,0,3.9,0V149.556a6.379,6.379,0,0,1,.039-.671l5.22,5.22a4.274,4.274,0,0,1,1.26,3.042v18.247a1.949,1.949,0,1,0,3.9,0V157.147a8.146,8.146,0,0,0-2.4-5.8l-6.223-6.223a6.369,6.369,0,0,1,2-1.4l11.137-4.95,8.259,8.259v28.363a1.949,1.949,0,1,0,3.9,0V147.031l8.259-8.259,11.137,4.95a6.365,6.365,0,0,1,2,1.4l-6.223,6.223a8.146,8.146,0,0,0-2.4,5.8v18.247a1.949,1.949,0,1,0,3.9,0V157.147a4.273,4.273,0,0,1,1.26-3.042l5.22-5.22a6.37,6.37,0,0,1,.04.67v25.838a1.949,1.949,0,1,0,3.9,0V149.556A10.294,10.294,0,0,0,196.257,140.159Zm-22.929,3.308-7.247-7.247a6.106,6.106,0,0,0,.862-3.122V132.3a16.521,16.521,0,0,0,12.77,0v.793a6.1,6.1,0,0,0,.862,3.122Zm0-13.778a12.65,12.65,0,0,1-12.636-12.636v-.877a11.526,11.526,0,0,0,3.54-2.3,1.95,1.95,0,0,0-2.645-2.865,7,7,0,0,1-2.895,1.729.316.316,0,0,1-.052.01.4.4,0,0,1-.033-.176v-3.856a12.65,12.65,0,0,1,12.636-12.636h4.167a12.65,12.65,0,0,1,12.636,12.636v.425a.125.125,0,0,1-.088.128c-11.674,2.306-17.529-2.04-19.5-4.015a1.949,1.949,0,1,0-2.757,2.757c6.054,6.054,14.887,6.163,20.265,5.517v3.523A12.65,12.65,0,0,1,173.328,129.689Z" transform="translate(-144.292 -92.184)" fill="#151a6a"/>
        </g>
      </g>
      <g id="Сгруппировать_44" data-name="Сгруппировать 44" transform="translate(0 102.602)">
        <g id="Сгруппировать_43" data-name="Сгруппировать 43">
          <path id="Контур_309" data-name="Контур 309" d="M35.153,159.218V155.05a14.448,14.448,0,0,0-6.625-12.139,8.2,8.2,0,1,0-15.652,0A14.447,14.447,0,0,0,6.251,155.05v4.167a14.443,14.443,0,0,0,6.251,11.89v4.287a2.206,2.206,0,0,1-1.226,1.984l-6.743,3.371A8.156,8.156,0,0,0,0,188.084v16.973a1.949,1.949,0,1,0,3.9,0v-16.13L7.075,192.1a4.274,4.274,0,0,1,1.26,3.042v9.912a1.949,1.949,0,1,0,3.9,0v-9.912a8.147,8.147,0,0,0-2.4-5.8l-4.42-4.42c-.021-.021-.044-.04-.066-.06a4.346,4.346,0,0,1,.931-.63l6.743-3.371a6.207,6.207,0,0,0,.967-.6l4.766,4.767v20.029a1.949,1.949,0,0,0,3.9,0V185.029l4.767-4.767a6.18,6.18,0,0,0,.967.6l1.859.93a1.949,1.949,0,1,0,1.744-3.487l-1.859-.93A2.206,2.206,0,0,1,28.9,175.4v-4.287A14.444,14.444,0,0,0,35.153,159.218ZM20.7,136.164a4.306,4.306,0,0,1,4.3,4.3,4.368,4.368,0,0,1-.068.768,14.45,14.45,0,0,0-8.46,0,4.275,4.275,0,0,1,4.227-5.068Zm0,8.335a10.564,10.564,0,0,1,10.552,10.552v.706a12.238,12.238,0,0,1-13.16-3.96,1.949,1.949,0,0,0-2.938-.209,12.753,12.753,0,0,1-5,3.192A10.562,10.562,0,0,1,20.7,144.5Zm0,36.965-4.5-4.5a6.173,6.173,0,0,0,.2-1.564v-2.38a14.477,14.477,0,0,0,8.6,0v2.38a6.172,6.172,0,0,0,.2,1.564Zm0-11.694A10.564,10.564,0,0,1,10.15,159.218v-.4a15.631,15.631,0,0,0,6.264-3.121,17.588,17.588,0,0,0,3.615,2.632,15.506,15.506,0,0,0,7.45,1.923,16.333,16.333,0,0,0,3.758-.45A10.565,10.565,0,0,1,20.7,169.77Z" transform="translate(0 -132.265)" fill="#151a6a"/>
        </g>
      </g>
    </g>
  </g>
</svg>
