<svg id="fond-4" xmlns="http://www.w3.org/2000/svg" width="152.462" height="150" viewBox="0 0 152.462 150">
  <path id="Контур_184" data-name="Контур 184" d="M67.944,46.809a2.455,2.455,0,1,1,3.295,3.639A154.2,154.2,0,0,0,50.191,73.76a27.038,27.038,0,0,0,9.589,1.918,19.907,19.907,0,0,0,10.45-2.926c16.376-9.984,18.933-42.247,19.031-43.624a2.441,2.441,0,0,0-2.9-2.582C65.977,30.358,52.92,37.809,47.585,48.7a27.223,27.223,0,0,0-.787,21.32A161.185,161.185,0,0,1,67.944,46.809Z" transform="translate(63.194 34.977)" fill="#d8e1f1"/>
  <path id="Контур_185" data-name="Контур 185" d="M39.266,46.711A2.475,2.475,0,1,1,43,43.465L60.461,63.63a61.1,61.1,0,0,1,7.794,11.336,34.053,34.053,0,0,0-.443-27.837C61.4,34.1,45.954,25.17,21.932,20.547a2.458,2.458,0,0,0-2.926,2.582c.123,1.7,3.172,41.46,22.867,53.362a22.752,22.752,0,0,0,11.95,3.32A30.048,30.048,0,0,0,64.2,77.843a57.678,57.678,0,0,0-7.45-10.992Z" transform="translate(25.262 26.222)" fill="#d8e1f1"/>
  <path id="Контур_186" data-name="Контур 186" d="M76.6,49.682a2.554,2.554,0,0,1-1.23-1.156,14.554,14.554,0,0,1-.861-2.066,127.425,127.425,0,0,0-7.42,11.148,17.2,17.2,0,0,0-3.533-.519A61.54,61.54,0,0,0,58.04,42.649c-.378.8-.576,1.451-1.549,1.893-.836.369-1.672.689-2.508.984a56.913,56.913,0,0,1,4.628,12.1A17.1,17.1,0,0,0,46.4,69.33H37.067a11.066,11.066,0,0,0,0,22.132H88.7a11.066,11.066,0,0,0,0-22.132H79.368a17.1,17.1,0,0,0-7.64-9.8C73.4,56.734,75.435,53.6,77.907,50.2c-.418-.147-.861-.32-1.3-.516Z" transform="translate(35.477 58.538)" fill="#d8e1f1"/>
  <g id="Сгруппировать_3" data-name="Сгруппировать 3" transform="translate(0 0)">
    <path id="Контур_187" data-name="Контур 187" d="M16.836,42.5H9.459a2.459,2.459,0,0,0,0,4.918h7.377a2.459,2.459,0,0,0,0-4.918Z" transform="translate(7.754 58.32)" fill="#151a6a"/>
    <path id="Контур_188" data-name="Контур 188" d="M22.836,45.5H15.459a2.459,2.459,0,1,0,0,4.918h7.377a2.459,2.459,0,0,0,0-4.918Z" transform="translate(16.508 62.697)" fill="#151a6a"/>
    <path id="Контур_189" data-name="Контур 189" d="M30.836,42.5H23.459a2.459,2.459,0,0,0,0,4.918h7.377a2.459,2.459,0,0,0,0-4.918Z" transform="translate(28.181 58.32)" fill="#151a6a"/>
    <path id="Контур_190" data-name="Контур 190" d="M36.836,45.5H29.459a2.459,2.459,0,1,0,0,4.918h7.377a2.459,2.459,0,0,0,0-4.918Z" transform="translate(36.935 62.697)" fill="#151a6a"/>
    <path id="Контур_191" data-name="Контур 191" d="M44.836,42.5H37.459a2.459,2.459,0,0,0,0,4.918h7.377a2.459,2.459,0,0,0,0-4.918Z" transform="translate(48.607 58.32)" fill="#151a6a"/>
    <path id="Контур_192" data-name="Контур 192" d="M41,47.959a2.458,2.458,0,0,0,2.459,2.459h7.377a2.459,2.459,0,0,0,0-4.918H43.459A2.458,2.458,0,0,0,41,47.959Z" transform="translate(57.362 62.697)" fill="#151a6a"/>
    <path id="Контур_193" data-name="Контур 193" d="M121.493,85.106a42.41,42.41,0,0,0-15.537,2.586,36.95,36.95,0,0,1-11.512,2.28V77.729h4.918a9.846,9.846,0,0,0,9.836-9.836V62.975a2.455,2.455,0,0,0-1.48-2.252A9.74,9.74,0,0,0,109.2,55.6V50.68a2.455,2.455,0,0,0-1.48-2.252A9.74,9.74,0,0,0,109.2,43.3V38.385a2.458,2.458,0,0,0-2.459-2.459h-6.484A13.661,13.661,0,0,0,92.806,16.4a2.471,2.471,0,0,0-1.643,0,13.661,13.661,0,0,0-7.449,19.531H77.23a2.458,2.458,0,0,0-2.459,2.459V43.3a9.741,9.741,0,0,0,1.48,5.125,2.455,2.455,0,0,0-1.48,2.252V55.6a9.741,9.741,0,0,0,1.48,5.125,2.455,2.455,0,0,0-1.48,2.252v4.918a9.846,9.846,0,0,0,9.836,9.836h4.918V89.974A36.889,36.889,0,0,1,78,87.69a47.2,47.2,0,0,0-31.062,0,36.906,36.906,0,0,1-11.508,2.28V75.27h4.918a9.846,9.846,0,0,0,9.836-9.836V60.516a2.455,2.455,0,0,0-1.48-2.252,9.74,9.74,0,0,0,1.48-5.125V48.221a2.455,2.455,0,0,0-1.48-2.252,9.74,9.74,0,0,0,1.48-5.125V35.926a2.455,2.455,0,0,0-1.48-2.252,9.74,9.74,0,0,0,1.48-5.125V23.63a2.458,2.458,0,0,0-2.459-2.459H41.238A13.661,13.661,0,0,0,33.789,1.641a2.471,2.471,0,0,0-1.643,0A13.661,13.661,0,0,0,24.7,21.171H18.213a2.458,2.458,0,0,0-2.459,2.459v4.918a9.741,9.741,0,0,0,1.48,5.125,2.455,2.455,0,0,0-1.48,2.252v4.918a9.741,9.741,0,0,0,1.48,5.125,2.455,2.455,0,0,0-1.48,2.252v4.918a9.741,9.741,0,0,0,1.48,5.125,2.455,2.455,0,0,0-1.48,2.252v4.918A9.846,9.846,0,0,0,25.59,75.27h4.918v14.7a36.85,36.85,0,0,1-11.52-2.283,42.436,42.436,0,0,0-15.53-2.584A2.458,2.458,0,0,0,1,87.566v29.508a7.385,7.385,0,0,0,7.377,7.377h108.2a7.385,7.385,0,0,0,7.377-7.377V87.566a2.458,2.458,0,0,0-2.459-2.459ZM79.689,55.6V53.139h4.918a4.924,4.924,0,0,1,4.918,4.918v2.459H84.607A4.925,4.925,0,0,1,79.689,55.6Zm24.59-2.459V55.6a4.925,4.925,0,0,1-4.918,4.918H94.443V58.057a4.924,4.924,0,0,1,4.918-4.918Zm0,14.754a4.924,4.924,0,0,1-4.918,4.918H94.443V70.352a4.924,4.924,0,0,1,4.918-4.918h4.918Zm0-24.59a4.925,4.925,0,0,1-4.918,4.918H94.443V45.762a4.924,4.924,0,0,1,4.918-4.918h4.918Zm-12.3-21.934a8.817,8.817,0,0,1,0,15.962,8.817,8.817,0,0,1,0-15.962Zm-12.3,19.475h4.918a4.924,4.924,0,0,1,4.918,4.918v2.459H84.607A4.924,4.924,0,0,1,79.689,43.3Zm0,27.049V65.434h4.918a4.924,4.924,0,0,1,4.918,4.918v2.459H84.607A4.924,4.924,0,0,1,79.689,67.893ZM20.672,53.139V50.68H25.59A4.924,4.924,0,0,1,30.508,55.6v2.459H25.59A4.924,4.924,0,0,1,20.672,53.139Zm0-12.3V38.385H25.59A4.924,4.924,0,0,1,30.508,43.3v2.459H25.59a4.924,4.924,0,0,1-4.918-4.918Zm24.59-2.459v2.459a4.924,4.924,0,0,1-4.918,4.918H35.427V43.3a4.924,4.924,0,0,1,4.918-4.918Zm0,12.3v2.459a4.924,4.924,0,0,1-4.918,4.918H35.427V55.6a4.924,4.924,0,0,1,4.918-4.918Zm0,14.754a4.924,4.924,0,0,1-4.918,4.918H35.427V67.893a4.924,4.924,0,0,1,4.918-4.918h4.918Zm0-36.886a4.924,4.924,0,0,1-4.918,4.918H35.427V31.008a4.924,4.924,0,0,1,4.918-4.918h4.918ZM32.967,6.614a8.817,8.817,0,0,1,0,15.962,8.817,8.817,0,0,1,0-15.962ZM20.672,26.09H25.59a4.924,4.924,0,0,1,4.918,4.918v2.459H25.59a4.924,4.924,0,0,1-4.918-4.918Zm0,39.345V62.975H25.59a4.924,4.924,0,0,1,4.918,4.918v2.459H25.59A4.924,4.924,0,0,1,20.672,65.434Zm98.362,51.64a2.461,2.461,0,0,1-2.459,2.459H8.377a2.461,2.461,0,0,1-2.459-2.459v-27a36.936,36.936,0,0,1,11.515,2.281,47.911,47.911,0,0,0,31.057,0,42.3,42.3,0,0,1,27.95,0,47.976,47.976,0,0,0,31.072,0,36.811,36.811,0,0,1,11.522-2.284Z" transform="translate(-1 -1.5)" fill="#151a6a"/>
  </g>
</svg>
