<svg xmlns="http://www.w3.org/2000/svg" width="24.126" height="25.895" viewBox="0 0 24.126 25.895">
  <g id="ic-bird" transform="translate(0 1.02)">
    <g id="Слой_1" data-name="Слой 1" transform="translate(0 -1.02)">
      <path id="Контур_158" data-name="Контур 158" d="M14.053,25.871a8.227,8.227,0,0,0,7.34-4.149h0c1-1.657,1.554-3.392,2.733-4.479a9.815,9.815,0,0,0-1.4-.311c-.124-.02-.234-.03-.35-.044-3.056-.367-3.2,1.315-4.176,1.315-1.132,0-1.664-1.777-1.8-5.117a6.383,6.383,0,0,0-2.929-4.971l-.434-.286L6.3,3.395S1.956.659,1.091.049L.985-.018h0A.071.071,0,0,1,.979,0C.979,0,.971-.013.968-.02.89.239.834.508.767.772s-.143.53-.2.8C.555,1.612.549,1.655.54,1.7c-.1.45-.181.9-.246,1.359A24.406,24.406,0,0,0,0,6.792,23.111,23.111,0,0,0,3.005,18.409C5.69,23.011,10.4,26,14.053,25.871Z" transform="translate(0 0.02)" fill="#ffdf00"/>
    </g>
  </g>
</svg>
