<svg xmlns="http://www.w3.org/2000/svg" width="15.2" height="8" viewBox="0 0 15.2 8">
  <g id="ic-down" transform="translate(15.2 0) rotate(90)">
    <path id="Контур_198" data-name="Контур 198" d="M117.666,15.2a.335.335,0,0,0,.236-.1l7.33-7.268a.328.328,0,0,0,0-.467L117.9.1a.335.335,0,0,0-.471-.008.328.328,0,0,0-.008.467l.008.008L124.524,7.6l-7.094,7.034a.328.328,0,0,0,0,.467A.335.335,0,0,0,117.666,15.2Z" transform="translate(-117.329 0)" fill="#f44336"/>
    <path id="Контур_199" data-name="Контур 199" d="M117.666,15.2a.335.335,0,0,0,.236-.1l7.33-7.268a.328.328,0,0,0,0-.467L117.9.1a.335.335,0,0,0-.471-.008.328.328,0,0,0-.008.467l.008.008L124.524,7.6l-7.094,7.034a.328.328,0,0,0,0,.467A.335.335,0,0,0,117.666,15.2Z" transform="translate(-117.329 0)" fill="#353d42"/>
  </g>
</svg>
