<svg xmlns="http://www.w3.org/2000/svg" width="109.489" height="22.607" viewBox="0 0 109.489 22.607">
  <g id="ic-liqpay" transform="translate(0 0)">
    <g id="Сгруппировать_12" data-name="Сгруппировать 12" transform="translate(91.411 0.068)">
      <path id="Контур_207" data-name="Контур 207" d="M.809,18.056l-.251-.215A1.463,1.463,0,0,1,.4,15.757L6.932,8.288a1.463,1.463,0,0,1,2.084-.162l.251.216a1.462,1.462,0,0,1,.162,2.083L2.893,17.894a1.493,1.493,0,0,1-2.084.162Z" transform="translate(-0.034 -0.526)" fill="#25a500" fill-rule="evenodd"/>
      <path id="Контур_208" data-name="Контур 208" d="M6.31,9.668l-.126-.144-1.005,1.15.107.125a3.136,3.136,0,0,1,.593,4.076l.143-.162c.234-.27.593-.682.969-1.131A3.08,3.08,0,0,0,6.31,9.668Z" transform="translate(-0.29 -0.614)" fill="#25a500" fill-rule="evenodd" opacity="0.4"/>
      <path id="Контур_209" data-name="Контур 209" d="M8.608,12.016l.27-.305c.018-.036.053-.072.071-.108-.287.323-.592.665-.88,1.005Q8.393,12.259,8.608,12.016Z" transform="translate(-0.434 -0.717)" fill="#25a500" fill-rule="evenodd" opacity="0.4"/>
      <path id="Контур_210" data-name="Контур 210" d="M9.467,8.141,2.93.672A1.459,1.459,0,0,0,.847.511L.6.725A1.462,1.462,0,0,0,.435,2.808L5.947,9.056l.125.144a3.072,3.072,0,0,1,.665,3.932c.323-.377.646-.754.951-1.1.288-.341.593-.682.88-1.005s.557-.628.736-.827a1.43,1.43,0,0,0,.162-2.064Z" transform="translate(-0.036 -0.147)" fill="#25a500" fill-rule="evenodd"/>
      <g id="Сгруппировать_11" data-name="Сгруппировать 11" transform="translate(8.296)">
        <path id="Контур_211" data-name="Контур 211" d="M.847,18.056.6,17.841a1.463,1.463,0,0,1-.162-2.084L6.97,8.288a1.462,1.462,0,0,1,2.083-.162l.252.216a1.463,1.463,0,0,1,.162,2.083L2.93,17.894A1.491,1.491,0,0,1,.847,18.056Z" transform="translate(-0.072 -0.526)" fill="#25a500" fill-rule="evenodd"/>
        <path id="Контур_212" data-name="Контур 212" d="M6.423,9.592,6.3,9.449,5.291,10.6l.108.125A3.135,3.135,0,0,1,5.991,14.8l.144-.162c.233-.27.592-.683.969-1.132A3.08,3.08,0,0,0,6.423,9.592Z" transform="translate(-0.332 -0.61)" fill="#25a500" fill-rule="evenodd" opacity="0.4"/>
        <path id="Контур_213" data-name="Контур 213" d="M8.627,12.016l.27-.305c.017-.036.053-.072.071-.108-.287.323-.592.665-.88,1.005.216-.233.413-.43.539-.592Z" transform="translate(-0.471 -0.717)" fill="#25a500" fill-rule="evenodd" opacity="0.4"/>
        <path id="Контур_214" data-name="Контур 214" d="M9.485,8.141,2.949.672A1.459,1.459,0,0,0,.866.511L.616.725A1.463,1.463,0,0,0,.454,2.808L5.966,9.057l.125.144a3.072,3.072,0,0,1,.665,3.932c.323-.377.646-.754.951-1.1.287-.341.593-.682.88-1.005s.557-.628.736-.827a1.43,1.43,0,0,0,.162-2.064Z" transform="translate(-0.073 -0.147)" fill="#25a500" fill-rule="evenodd"/>
      </g>
    </g>
    <path id="Контур_215" data-name="Контур 215" d="M29.019.076a8.914,8.914,0,0,1,4.471,1.095,7.543,7.543,0,0,1,2.927,3.16A10.69,10.69,0,0,1,37.44,9.162a10.312,10.312,0,0,1-1.2,5.153,7.114,7.114,0,0,1-3.429,3.143,3.628,3.628,0,0,1,1.921,1.669l.9,1.346a1.763,1.763,0,0,1,.287.9,1.122,1.122,0,0,1-.448.934,1.732,1.732,0,0,1-1.059.377,1.806,1.806,0,0,1-.862-.216,2.016,2.016,0,0,1-.665-.628L31.406,19.4a2.113,2.113,0,0,0-.916-.863,3.406,3.406,0,0,0-1.473-.287,9.008,9.008,0,0,1-4.507-1.1,7.538,7.538,0,0,1-2.927-3.16,10.807,10.807,0,0,1-1.023-4.83,11,11,0,0,1,1.023-4.831,7.551,7.551,0,0,1,2.927-3.16A8.656,8.656,0,0,1,29.02.076ZM72.024.093A1.322,1.322,0,0,1,73.1.65l5.154,6.393L83.389.65A1.4,1.4,0,0,1,85.525.561a1.4,1.4,0,0,1,.449,1.059,1.536,1.536,0,0,1-.377.969L79.87,9.574V16.56a1.625,1.625,0,0,1-.449,1.221,1.533,1.533,0,0,1-1.15.43,1.7,1.7,0,0,1-1.2-.43,1.572,1.572,0,0,1-.449-1.221V9.574l-5.692-7A1.5,1.5,0,0,1,70.55,1.6,1.454,1.454,0,0,1,71,.543,1.44,1.44,0,0,1,72.022.093ZM48.716.238a6.314,6.314,0,0,1,4.435,1.436,5.064,5.064,0,0,1,1.6,3.987,5.129,5.129,0,0,1-1.6,4A6.314,6.314,0,0,1,48.716,11.1H44.209v5.423a1.558,1.558,0,0,1-.448,1.2,1.614,1.614,0,0,1-1.2.448,1.581,1.581,0,0,1-1.167-.466,1.616,1.616,0,0,1-.448-1.2V1.764a1.471,1.471,0,0,1,.43-1.131,1.681,1.681,0,0,1,1.15-.4h6.2ZM15.587.093a1.612,1.612,0,0,1,1.2.449,1.553,1.553,0,0,1,.449,1.167v14.8a1.637,1.637,0,0,1-.449,1.2,1.612,1.612,0,0,1-1.2.449,1.584,1.584,0,0,1-1.167-.449,1.612,1.612,0,0,1-.449-1.2V1.709A1.541,1.541,0,0,1,15.587.093ZM63.135.076a2.074,2.074,0,0,1,.988.251,1.735,1.735,0,0,1,.7.773l6.986,14.957a2.193,2.193,0,0,1,.125.665,1.325,1.325,0,0,1-.467.988,1.663,1.663,0,0,1-1.078.394,1.408,1.408,0,0,1-1.311-.881l-1.526-3.375H58.718l-1.526,3.376a1.476,1.476,0,0,1-.557.664,1.431,1.431,0,0,1-.772.216,1.681,1.681,0,0,1-1.059-.4,1.192,1.192,0,0,1-.467-.988,1.782,1.782,0,0,1,.143-.664L61.447,1.1a1.618,1.618,0,0,1,.7-.773,1.882,1.882,0,0,1,.988-.251ZM1.635.111a1.614,1.614,0,0,1,1.2.449,1.556,1.556,0,0,1,.448,1.167V15.356h7.057c1.005,0,1.526.449,1.526,1.329s-.521,1.328-1.526,1.328h-8.8A1.53,1.53,0,0,1,.414,17.6a1.51,1.51,0,0,1-.4-1.1V1.727A1.54,1.54,0,0,1,1.635.111ZM28.982,2.626A4.688,4.688,0,0,0,25.14,4.3a7.441,7.441,0,0,0-1.383,4.83,7.435,7.435,0,0,0,1.383,4.83,4.674,4.674,0,0,0,3.843,1.688,4.639,4.639,0,0,0,3.824-1.688,7.507,7.507,0,0,0,1.383-4.83A7.441,7.441,0,0,0,32.807,4.3a4.6,4.6,0,0,0-3.824-1.67ZM63.135,3.865l-3.322,7.469h6.662ZM48.3,2.769H44.209V8.6l4.094.018c2.226,0,3.358-.988,3.358-2.927S50.53,2.77,48.3,2.77Z" transform="translate(-0.019 -0.076)" fill="#25a500" fill-rule="evenodd"/>
  </g>
</svg>
