<svg xmlns="http://www.w3.org/2000/svg" xmlns:xlink="http://www.w3.org/1999/xlink" width="67.733" height="71.886" viewBox="0 0 67.733 71.886">
  <defs>
    <filter id="Контур_5" x="0" y="0" width="67.733" height="71.886" filterUnits="userSpaceOnUse">
      <feOffset dy="3" input="SourceAlpha"/>
      <feGaussianBlur stdDeviation="3" result="blur"/>
      <feFlood flood-opacity="0.161"/>
      <feComposite operator="in" in2="blur"/>
      <feComposite in="SourceGraphic"/>
    </filter>
  </defs>
  <g id="Сгруппировать_227" data-name="Сгруппировать 227" transform="translate(-1672.834 -812)">
    <g id="Сгруппировать_35" data-name="Сгруппировать 35" transform="translate(22.728 41)">
      <path id="Контур_1" data-name="Контур 1" d="M23.08,51.5c5.051.571,5.4-2.443.808-3.842C12.5,44.187.255,35.66.255,35.66a9.23,9.23,0,0,0,.379,5.585C4.145,48.613,19.109,51.05,23.08,51.5Z" transform="translate(1655.996 752.598)" fill="#fff"/>
      <path id="Контур_2" data-name="Контур 2" d="M27.585,86.229c3-.578,3.444-2.775.29-2.819C16.517,83.252,4,78.09,4,78.09A9.47,9.47,0,0,0,8.136,84.2C14.794,88.318,26.73,86.4,27.585,86.229Z" transform="translate(1653.262 723.563)" fill="#fff"/>
      <path id="Контур_3" data-name="Контур 3" d="M43.173,113.785a9.947,9.947,0,0,0,4.956-3.63c.89-1.263.474-2.683-.988-2.061s-5.414,2.841-17.152,3c1.228,1.657,4.24,3.858,6.727,3.858A18.66,18.66,0,0,0,43.173,113.785Z" transform="translate(1635.477 703.135)" fill="#fff"/>
      <path id="Контур_4" data-name="Контур 4" d="M73.89,122.857c1.263.732,4.672,1.149,6.128.2,1.815-1.174,2.106-5.443,1.815-6.888s-1.165-.723-1.578,0C80.27,116.177,77.416,121.064,73.89,122.857Z" transform="translate(1605.436 698.075)" fill="#fff"/>
      <g transform="matrix(1, 0, 0, 1, 1650.11, 771)" filter="url(#Контур_5)">
        <path id="Контур_5-2" data-name="Контур 5" d="M56.335,34.483c-.287-.044-.543-.066-.811-.1-7.078-.8-7.425,2.841-9.676,2.841-2.62,0-3.855-3.855-4.164-11.1S34.9,15.343,34.9,15.343l-1-.631-15.63-9.6S12.052,1.323,10.051,0c-.5,2.611-.246,6.655,2.434,8.839,5.982,4.9,9.471,5.72,13.973,8.265,10.165,5.733,10.8,8.265,11.488,13.07.808,5.682,3.615,9.442,7.46,9.442,4.161,0,5.329-3.29,8.786-2.554v.028a24.567,24.567,0,0,1-32.832,9.5l-.047-.019a19.756,19.756,0,0,0,31.936-1.7h0c2.308-3.6,3.6-7.359,6.33-9.714A23.719,23.719,0,0,0,56.335,34.483Z" transform="translate(-0.84 6)" fill="#fff"/>
      </g>
    </g>
  </g>
</svg>
