<svg id="ic-mastercard" xmlns="http://www.w3.org/2000/svg" width="51.708" height="31.025" viewBox="0 0 51.708 31.025">
  <path id="Контур_254" data-name="Контур 254" d="M232.625,116.313a15.512,15.512,0,1,1-31.025,0h0a15.512,15.512,0,1,1,31.025,0Z" transform="translate(-180.917 -100.8)" fill="#ffb600"/>
  <path id="Контур_257" data-name="Контур 257" d="M15.348,100.8a15.513,15.513,0,0,0,.164,31.025A15.693,15.693,0,0,0,25.936,127.8h0a14.747,14.747,0,0,0,1.559-1.642h-3.2a18.93,18.93,0,0,1-1.149-1.559h5.5a10.515,10.515,0,0,0,.9-1.642h-7.3a9.783,9.783,0,0,1-.657-1.642h8.536a16.3,16.3,0,0,0,.821-4.925,21.186,21.186,0,0,0-.328-3.283H21.094a12,12,0,0,1,.41-1.642H30.04a9.783,9.783,0,0,0-.657-1.642H22.161a16.276,16.276,0,0,1,.9-1.642h5.5a7.805,7.805,0,0,0-1.231-1.642H24.295a13.988,13.988,0,0,1,1.559-1.559,15.145,15.145,0,0,0-10.424-4.022C15.43,100.8,15.43,100.8,15.348,100.8Z" transform="translate(0 -100.8)" fill="#ff5050"/>
  <g id="Сгруппировать_17" data-name="Сгруппировать 17" transform="translate(1.477 11.491)">
    <path id="Контур_260" data-name="Контур 260" d="M183.98,227.223l.246-1.4a3.554,3.554,0,0,1-.41.082c-.575,0-.657-.328-.575-.492l.492-2.873h.9l.246-1.559h-.821l.164-.985h-1.642s-.985,5.417-.985,6.074a1.232,1.232,0,0,0,1.313,1.4A2.519,2.519,0,0,0,183.98,227.223Z" transform="translate(-164.446 -219.261)" fill="#fff"/>
    <path id="Контур_261" data-name="Контур 261" d="M210.4,232.4a2.611,2.611,0,0,0,2.873,2.873,4.262,4.262,0,0,0,1.724-.246l.328-1.559a4.921,4.921,0,0,1-1.724.41c-1.806,0-1.477-1.313-1.477-1.313h3.365a10.642,10.642,0,0,0,.246-1.477,2.224,2.224,0,0,0-2.38-2.38C211.631,228.545,210.4,230.351,210.4,232.4Zm2.873-2.38c.9,0,.739,1.067.739,1.149h-1.806C212.206,231.089,212.37,230.022,213.273,230.022Z" transform="translate(-190.291 -227.068)" fill="#fff"/>
    <path id="Контур_262" data-name="Контур 262" d="M300.514,220.762l.328-1.806a4.034,4.034,0,0,1-1.4.41c-1.149,0-1.642-.9-1.642-1.888,0-1.97.985-3.037,2.134-3.037a2.741,2.741,0,0,1,1.477.492l.246-1.724a5.771,5.771,0,0,0-1.888-.41c-1.888,0-3.776,1.642-3.776,4.76,0,2.052.985,3.447,2.955,3.447A7.366,7.366,0,0,0,300.514,220.762Z" transform="translate(-267.109 -212.8)" fill="#fff"/>
    <path id="Контур_263" data-name="Контур 263" d="M89.519,227.2a5.813,5.813,0,0,0-1.97.328l-.246,1.4a4.851,4.851,0,0,1,1.806-.328c.575,0,1.067.082,1.067.575,0,.328-.082.41-.082.41h-.739c-1.4,0-2.955.575-2.955,2.462,0,1.477.985,1.806,1.559,1.806a2.466,2.466,0,0,0,1.724-.739l-.082.657h1.477l.657-4.514A1.945,1.945,0,0,0,89.519,227.2Zm.328,3.693c0,.246-.164,1.559-1.149,1.559a.641.641,0,0,1-.657-.657c0-.41.246-.985,1.477-.985A1.294,1.294,0,0,0,89.847,230.893Z" transform="translate(-79.013 -225.723)" fill="#fff"/>
    <path id="Контур_264" data-name="Контур 264" d="M137.088,233.13A2.1,2.1,0,0,0,139.55,231c0-2.052-1.97-1.642-1.97-2.462,0-.41.328-.575.9-.575.246,0,1.149.082,1.149.082l.246-1.477a6.234,6.234,0,0,0-1.559-.164c-1.231,0-2.462.492-2.462,2.134,0,1.888,2.052,1.724,2.052,2.462,0,.492-.575.575-.985.575a5.367,5.367,0,0,1-1.477-.246L135.2,232.8C135.282,232.966,135.692,233.13,137.088,233.13Z" transform="translate(-122.806 -225.005)" fill="#fff"/>
    <path id="Контур_265" data-name="Контур 265" d="M431.878,214.4l-.328,2.216a2.276,2.276,0,0,0-1.559-.821c-1.477,0-2.791,1.806-2.791,3.94,0,1.313.657,2.709,2.052,2.709a2.191,2.191,0,0,0,1.559-.657l-.082.575h1.641l1.231-7.879Zm-.739,4.35c0,.9-.41,2.052-1.313,2.052-.575,0-.9-.492-.9-1.313,0-1.313.575-2.134,1.313-2.134C430.811,217.355,431.14,217.765,431.14,218.75Z" transform="translate(-384.848 -214.236)" fill="#fff"/>
    <path id="Контур_266" data-name="Контур 266" d="M15.959,222.279l.985-5.91.164,5.91h1.149l2.134-5.91-.9,5.91h1.724l1.313-7.879H19.817l-1.642,4.843-.082-4.843h-2.38L14.4,222.279Z" transform="translate(-14.4 -214.236)" fill="#fff"/>
    <path id="Контур_267" data-name="Контур 267" d="M261.806,235.2c.492-2.709.575-4.925,1.724-4.514a6.442,6.442,0,0,1,.574-1.888h-.328c-.739,0-1.313.985-1.313.985l.164-.9h-1.559l-1.067,6.4h1.806Z" transform="translate(-234.802 -227.158)" fill="#fff"/>
    <path id="Контур_268" data-name="Контур 268" d="M349.519,227.2a5.813,5.813,0,0,0-1.97.328l-.246,1.4a4.851,4.851,0,0,1,1.806-.328c.575,0,1.067.082,1.067.575,0,.328-.082.41-.082.41h-.739c-1.4,0-2.955.575-2.955,2.462,0,1.477.985,1.806,1.559,1.806a2.466,2.466,0,0,0,1.724-.739l-.082.657h1.477l.657-4.514A1.917,1.917,0,0,0,349.519,227.2Zm.41,3.693c0,.246-.164,1.559-1.149,1.559a.641.641,0,0,1-.657-.657c0-.41.246-.985,1.477-.985C349.847,230.893,349.847,230.893,349.929,230.893Z" transform="translate(-312.338 -225.723)" fill="#fff"/>
    <path id="Контур_269" data-name="Контур 269" d="M396.206,235.2c.492-2.709.575-4.925,1.724-4.514a6.44,6.44,0,0,1,.574-1.888h-.328c-.739,0-1.313.985-1.313.985l.164-.9h-1.559l-1.067,6.4h1.806Z" transform="translate(-355.414 -227.158)" fill="#fff"/>
  </g>
</svg>
