<svg xmlns="http://www.w3.org/2000/svg" width="45.706" height="30.848" viewBox="0 0 45.706 30.848">
  <g id="ic-nav" transform="translate(10.941 -26.256)">
    <g id="Сгруппировать_37" data-name="Сгруппировать 37" transform="translate(-10.941 26.256)">
      <path id="Контур_302" data-name="Контур 302" d="M42.776,30.663H2.93c-1.619,0-2.93-.986-2.93-2.2s1.311-2.2,2.93-2.2H42.776c1.618,0,2.93.986,2.93,2.2S44.395,30.663,42.776,30.663Z" transform="translate(0 -26.256)" fill="#fff"/>
      <path id="Контур_303" data-name="Контур 303" d="M22.057,227.586H2.451a2.216,2.216,0,1,1,0-4.407H22.057a2.216,2.216,0,1,1,0,4.407Z" transform="translate(0 -209.958)" fill="#fff"/>
    </g>
    <path id="Контур_304" data-name="Контур 304" d="M400.218,227.586H396.3a2.216,2.216,0,1,1,0-4.407h3.921a2.216,2.216,0,1,1,0,4.407Z" transform="translate(-375.378 -183.702)" fill="#fff" opacity="0.5"/>
    <path id="Контур_305" data-name="Контур 305" d="M42.776,424.509H2.93c-1.619,0-2.93-.986-2.93-2.2s1.311-2.2,2.93-2.2H42.776c1.618,0,2.93.986,2.93,2.2S44.395,424.509,42.776,424.509Z" transform="translate(-10.941 -367.405)" fill="#fff"/>
  </g>
</svg>
