<svg xmlns="http://www.w3.org/2000/svg" width="20" height="16.88" viewBox="0 0 20 16.88">
  <g id="ic-partner" transform="translate(0 -39.939)">
    <path id="Контур_326" data-name="Контур 326" d="M162.515,46.285l-3.555-6.057a.586.586,0,0,0-.8-.211l-2.13,1.23-1.919-.706a2.165,2.165,0,0,0-.214-.066,2.141,2.141,0,0,0-1.6.222l-3.172,1.831a1.465,1.465,0,1,0,1.465,2.537l3.481-2.01a1.172,1.172,0,0,1,1.172,0l7.035,4.064.1-.086A.586.586,0,0,0,162.515,46.285Z" transform="translate(-142.595)" fill="#003da5"/>
    <path id="Контур_327" data-name="Контур 327" d="M19.028,69.515l-6.968-4.023L8.58,67.5a2.621,2.621,0,0,1-1.314.354,2.653,2.653,0,0,1-.687-.091,2.637,2.637,0,0,1-.938-4.627L4.2,62.309a.586.586,0,0,0-.809.23L.07,68.739a.586.586,0,0,0,.223.784l.3.176.535-.926a2.493,2.493,0,0,1,3.98-.452,2.489,2.489,0,0,1,3.256,1.695c.019.071.034.142.047.213a2.491,2.491,0,0,1,1.846,1.782c.019.071.034.142.047.213a2.49,2.49,0,0,1,1.6,3.672l-.73,1.264,1.565.9a1.318,1.318,0,0,0,1.318-2.283l1.015.586a1.318,1.318,0,0,0,1.318-2.283l.677.391a1.318,1.318,0,1,0,1.318-2.283L17.71,71.8a1.318,1.318,0,0,0,1.318-2.283Z" transform="translate(0 -21.421)" fill="#003da5"/>
    <path id="Контур_328" data-name="Контур 328" d="M24.042,232.65a1.318,1.318,0,0,0-1.8.483l.391-.677a1.318,1.318,0,1,0-2.283-1.318l.391-.677a1.318,1.318,0,1,0-2.283-1.318l-.391.677a1.318,1.318,0,0,0-2.283-1.318l-1.416,2.453a1.318,1.318,0,1,0,2.283,1.318,1.318,1.318,0,1,0,2.283,1.318,1.318,1.318,0,1,0,2.283,1.318,1.318,1.318,0,1,0,2.283,1.318l1.025-1.776a1.318,1.318,0,0,0-.483-1.8Z" transform="translate(-13.634 -180.563)" fill="#003da5"/>
  </g>
</svg>
