<svg xmlns="http://www.w3.org/2000/svg" width="20" height="20" viewBox="0 0 20 20">
  <g id="ic-program" transform="translate(0)">
    <circle id="Эллипс_97" data-name="Эллипс 97" cx="2.939" cy="2.939" r="2.939" transform="translate(7.061 7.061)" fill="#003da5"/>
    <path id="Контур_314" data-name="Контур 314" d="M117.455,121.426l1.142.262a4.14,4.14,0,0,1,3.089-3.089l-.262-1.142A5.318,5.318,0,0,0,117.455,121.426Z" transform="translate(-112.867 -112.869)" fill="#003da5"/>
    <path id="Контур_315" data-name="Контур 315" d="M58.735,64.47l1.142.263a6.5,6.5,0,0,1,4.854-4.854l-.262-1.142a7.657,7.657,0,0,0-5.733,5.733Z" transform="translate(-56.441 -56.443)" fill="#003da5"/>
    <path id="Контур_316" data-name="Контур 316" d="M7.763,1.142,7.5,0A10.014,10.014,0,0,0,0,7.5l1.142.262A8.868,8.868,0,0,1,7.763,1.142Z" transform="translate(0 0)" fill="#003da5"/>
    <path id="Контур_317" data-name="Контур 317" d="M290.456,286.488l-1.142-.262a4.139,4.139,0,0,1-3.089,3.089l.262,1.142A5.318,5.318,0,0,0,290.456,286.488Z" transform="translate(-275.044 -275.045)" fill="#003da5"/>
    <path id="Контур_318" data-name="Контур 318" d="M305.773,300.04l-1.142-.263a6.5,6.5,0,0,1-4.854,4.854l.263,1.142a7.657,7.657,0,0,0,5.733-5.733Z" transform="translate(-288.067 -288.067)" fill="#003da5"/>
    <path id="Контур_319" data-name="Контур 319" d="M313.27,319.887l.262,1.142a10.014,10.014,0,0,0,7.5-7.5l-1.142-.262A8.867,8.867,0,0,1,313.27,319.887Z" transform="translate(-301.033 -301.029)" fill="#003da5"/>
    <path id="Контур_320" data-name="Контур 320" d="M118.6,286.227l-1.142.263a5.318,5.318,0,0,0,3.969,3.969l.263-1.142A4.14,4.14,0,0,1,118.6,286.227Z" transform="translate(-112.868 -275.046)" fill="#003da5"/>
    <path id="Контур_321" data-name="Контур 321" d="M59.879,299.777l-1.142.263a7.657,7.657,0,0,0,5.733,5.733l.263-1.142A6.5,6.5,0,0,1,59.879,299.777Z" transform="translate(-56.443 -288.067)" fill="#003da5"/>
    <path id="Контур_322" data-name="Контур 322" d="M1.142,313.267,0,313.529a10.014,10.014,0,0,0,7.5,7.5l.262-1.142a8.868,8.868,0,0,1-6.621-6.621Z" transform="translate(0 -301.03)" fill="#003da5"/>
    <path id="Контур_323" data-name="Контур 323" d="M289.315,121.687l1.142-.262a5.318,5.318,0,0,0-3.969-3.969l-.262,1.142A4.139,4.139,0,0,1,289.315,121.687Z" transform="translate(-275.045 -112.868)" fill="#003da5"/>
    <path id="Контур_324" data-name="Контур 324" d="M304.631,64.733l1.142-.263a7.657,7.657,0,0,0-5.733-5.733l-.263,1.142A6.5,6.5,0,0,1,304.631,64.733Z" transform="translate(-288.067 -56.443)" fill="#003da5"/>
    <path id="Контур_325" data-name="Контур 325" d="M319.888,7.763,321.03,7.5a10.014,10.014,0,0,0-7.5-7.5l-.262,1.142A8.868,8.868,0,0,1,319.888,7.763Z" transform="translate(-301.03)" fill="#003da5"/>
  </g>
</svg>
