<svg xmlns="http://www.w3.org/2000/svg" width="20" height="18.937" viewBox="0 0 20 18.937">
  <g id="ic-project" transform="translate(6 0)">
    <g id="_031---Flag" data-name="031---Flag" transform="translate(-6 0)">
      <path id="Shape" d="M8.033,22.373Q6.8,17.981,5.582,13.59h0a2.194,2.194,0,0,1-1.386.486c-.055,0-.11,0-.162-.007l3.714,13.3a.65.65,0,0,0,.8.452l.314-.09a.645.645,0,0,0,.448-.8Z" transform="translate(-2.64 -8.904)" fill="#003da5"/>
      <path id="Shape-2" data-name="Shape" d="M26.524,8.959a14.97,14.97,0,0,1-3.469-2.386.307.307,0,0,1-.09-.314A44.357,44.357,0,0,0,24.11.324c.041-.331-.141-.428-.328-.2C20.251,4.345,14.272-.2,10.4,2.817a.631.631,0,0,1,.007.114,2.207,2.207,0,0,1-.31,1.131l.124.438q1.159,4.164,2.328,8.331c3.834-3.914,10.2,1.259,13.9-3.162C26.638,9.441,26.675,9.024,26.524,8.959Z" transform="translate(-6.617 0)" fill="#003da5"/>
      <circle id="Oval" cx="1.552" cy="1.552" r="1.552" transform="translate(0 1.379)" fill="#003da5"/>
    </g>
  </g>
</svg>
