<svg id="ic-requisites" xmlns="http://www.w3.org/2000/svg" width="167.376" height="170.691" viewBox="0 0 167.376 170.691">
  <path id="Контур_1" data-name="Контур 1" d="M12.774,85.83c-16,1.81-17.09-7.74-2.56-12.17,36.06-10.99,74.86-38,74.86-38,1.28,5.98,1.11,12.93-1.2,17.69C72.754,76.69,25.354,84.41,12.774,85.83Z" transform="translate(81.506)" fill="#003da5"/>
  <path id="Контур_2" data-name="Контур 2" d="M11.795,103.87c-9.5-1.83-10.91-8.79-.92-8.93,35.98-.5,75.63-16.85,75.63-16.85-1.89,8.34-6.47,15.25-13.1,19.34C52.315,110.49,14.5,104.41,11.795,103.87Z" transform="translate(76.875)" fill="#003da5"/>
  <path id="Контур_3" data-name="Контур 3" d="M47.165,126.45c-9.28-3.36-13.66-8.63-15.7-11.5-2.82-4-1.5-8.5,3.13-6.53s17.15,9,54.33,9.5c-3.89,5.25-13.43,12.22-21.31,12.22a59.11,59.11,0,0,1-20.45-3.69Z" transform="translate(48.465)" fill="#003da5"/>
  <path id="Контур_4" data-name="Контур 4" d="M99.359,139.16c-4,2.32-14.8,3.64-19.41.64-5.75-3.72-6.67-17.24-5.75-21.82s3.69-2.29,5,0C79.149,118,88.189,133.48,99.359,139.16Z" transform="translate(-5.869)" fill="#003da5"/>
  <path id="Контур_5" data-name="Контур 5" d="M20.114,109.23c.91-.14,1.72-.21,2.57-.31,22.42-2.52,23.52,9,30.65,9,8.3,0,12.21-12.21,13.19-35.17S88.014,48.6,88.014,48.6l3.18-2L140.7,16.18S160.384,4.19,166.724,0c1.58,8.27.78,21.08-7.71,28-18.95,15.52-30,18.12-44.26,26.18-32.2,18.16-34.21,26.18-36.39,41.4-2.56,18-11.45,29.91-23.63,29.91-13.18,0-16.88-10.42-27.83-8.09v.09a77.82,77.82,0,0,0,104,30.08l.15-.06a62.58,62.58,0,0,1-101.16-5.4h0c-7.31-11.39-11.4-23.31-20.05-30.77a75.133,75.133,0,0,1,10.27-2.11Z" transform="translate(-9.844)" fill="#003da5"/>
</svg>
