<svg id="ic-team" xmlns="http://www.w3.org/2000/svg" width="20" height="20" viewBox="0 0 20 20">
  <circle id="Эллипс_94" data-name="Эллипс 94" cx="2.512" cy="2.512" r="2.512" transform="translate(7.258)" fill="#003da5"/>
  <path id="Контур_310" data-name="Контур 310" d="M70.667,50.5a2.5,2.5,0,0,0-2.5-2.5H66.5A2.5,2.5,0,0,0,64,50.5v1.667a.833.833,0,0,0,.833.833h5a.833.833,0,0,0,.833-.833Z" transform="translate(-57.333 -43)" fill="#003da5"/>
  <circle id="Эллипс_95" data-name="Эллипс 95" cx="2.512" cy="2.512" r="2.512" transform="translate(13.957 10.049)" fill="#003da5"/>
  <path id="Контур_311" data-name="Контур 311" d="M132.167,144H130.5a2.5,2.5,0,0,0-2.5,2.5v1.667a.833.833,0,0,0,.833.833h5a.833.833,0,0,0,.833-.833V146.5A2.5,2.5,0,0,0,132.167,144Z" transform="translate(-114.667 -129)" fill="#003da5"/>
  <circle id="Эллипс_96" data-name="Эллипс 96" cx="2.512" cy="2.512" r="2.512" transform="translate(0.558 10.049)" fill="#003da5"/>
  <path id="Контур_312" data-name="Контур 312" d="M4.167,144H2.5A2.5,2.5,0,0,0,0,146.5v1.667A.833.833,0,0,0,.833,149h5a.833.833,0,0,0,.833-.833V146.5a2.5,2.5,0,0,0-2.5-2.5Z" transform="translate(0 -129)" fill="#003da5"/>
  <path id="Контур_313" data-name="Контур 313" d="M71.358,104H69.691v2.887l-2.129,1.419.924,1.387,2.038-1.358,2.038,1.358.924-1.387-2.129-1.419Z" transform="translate(-60.524 -93.167)" fill="#003da5"/>
</svg>
