<svg xmlns="http://www.w3.org/2000/svg" width="64.211" height="19.366" viewBox="0 0 64.211 19.366">
  <g id="ic-visa" transform="translate(0 0)">
    <path id="Контур_280" data-name="Контур 280" d="M184.8,198.746l3.262-18.346h5.1L190,198.746Z" transform="translate(-161.256 -179.788)" fill="#3c58bf"/>
    <path id="Контур_282" data-name="Контур 282" d="M263.594,176.415a12.927,12.927,0,0,0-4.688-.815c-5.1,0-8.765,2.548-8.765,6.217,0,2.752,2.548,4.179,4.587,5.1s2.65,1.529,2.65,2.344c0,1.223-1.631,1.835-3.058,1.835a11.079,11.079,0,0,1-4.892-1.019l-.713-.306L248,193.946a16.526,16.526,0,0,0,5.81,1.019c5.4,0,8.969-2.548,8.969-6.421,0-2.14-1.325-3.771-4.383-5.1-1.835-.917-2.956-1.427-2.956-2.344,0-.815.917-1.631,2.956-1.631a9.349,9.349,0,0,1,3.873.713l.51.2.815-3.975Z" transform="translate(-216.404 -175.6)" fill="#3c58bf"/>
    <path id="Контур_284" data-name="Контур 284" d="M368.694,180.4c-1.223,0-2.14.1-2.65,1.325L358.4,198.746h5.5l1.019-3.058h6.523l.612,3.058h4.892L372.669,180.4Zm-2.344,12.231c.306-.917,2.038-5.4,2.038-5.4s.408-1.121.714-1.835l.306,1.733s1.019,4.587,1.223,5.606H366.35Z" transform="translate(-312.739 -179.788)" fill="#3c58bf"/>
    <path id="Контур_286" data-name="Контур 286" d="M58.844,193.941l-.51-2.65a14.775,14.775,0,0,0-7.135-8.052l4.587,16.308h5.5L69.546,181.2h-5.5Z" transform="translate(-44.677 -180.486)" fill="#3c58bf"/>
    <path id="Контур_288" data-name="Контур 288" d="M0,180.4l.917.2c6.523,1.529,11.008,5.4,12.74,9.989l-1.835-8.664c-.306-1.223-1.223-1.529-2.344-1.529Z" transform="translate(0 -179.788)" fill="#ffbc00"/>
  </g>
</svg>
