<svg xmlns="http://www.w3.org/2000/svg" width="20" height="17.839" viewBox="0 0 20 17.839">
  <g id="ic-work" transform="translate(0 0.001)">
    <path id="Контур_329" data-name="Контур 329" d="M19.035,7.246a1.918,1.918,0,0,0-.526-.208,8.653,8.653,0,0,0-2.349-4.28q-.137-.137-.278-.266c.006-.021.013-.042.018-.063A1.932,1.932,0,0,0,12.626.609a8.791,8.791,0,0,0-5.254,0A1.93,1.93,0,0,0,4.118,2.493c-.094.087-.187.175-.278.266A8.654,8.654,0,0,0,1.491,7.04a1.929,1.929,0,0,0,0,3.758A8.654,8.654,0,0,0,3.84,15.079c.091.091.184.179.278.266-.006.021-.013.042-.018.063a1.931,1.931,0,0,0,2.831,2.172,1.938,1.938,0,0,0,.443-.35,8.792,8.792,0,0,0,5.254,0,1.93,1.93,0,0,0,3.253-1.884q.141-.13.278-.266A8.652,8.652,0,0,0,18.509,10.8a1.929,1.929,0,0,0,.526-3.55ZM15.2,14.371a1.929,1.929,0,0,0-3.1,1.536,1.944,1.944,0,0,0,.016.247,7.546,7.546,0,0,1-4.24,0A1.931,1.931,0,0,0,5,14.235a1.984,1.984,0,0,0-.2.135A7.542,7.542,0,0,1,2.674,10.7,1.929,1.929,0,0,0,2.9,7.246a1.958,1.958,0,0,0-.222-.109A7.543,7.543,0,0,1,4.8,3.467,1.928,1.928,0,0,0,7.88,1.683a7.544,7.544,0,0,1,4.24,0A1.93,1.93,0,0,0,15.2,3.467a7.543,7.543,0,0,1,2.123,3.671,1.929,1.929,0,0,0,0,3.563,7.541,7.541,0,0,1-2.124,3.67Zm0,0" transform="translate(0)" fill="#003da5"/>
    <path id="Контур_330" data-name="Контур 330" d="M180.082,248.963a3.386,3.386,0,0,1-2.5-1.1,3.068,3.068,0,0,0-.583,1.8v1h6.172v-1a3.068,3.068,0,0,0-.583-1.8,3.386,3.386,0,0,1-2.5,1.1Zm0,0" transform="translate(-170.082 -238.178)" fill="#003da5"/>
    <path id="Контур_331" data-name="Контур 331" d="M203.551,134.551a2.222,2.222,0,1,1-2.222-2.222A2.222,2.222,0,0,1,203.551,134.551Zm0,0" transform="translate(-191.328 -127.16)" fill="#003da5"/>
  </g>
</svg>
