<svg xmlns="http://www.w3.org/2000/svg" width="169.5" height="61.607" viewBox="0 0 169.5 61.607">
  <g id="Сгруппировать_228" data-name="Сгруппировать 228" transform="translate(-295 -50)">
    <g id="Слой_2" data-name="Слой 2" transform="translate(294.996 50)">
      <g id="Слой_1" data-name="Слой 1" transform="translate(0.004)">
        <path id="Контур_23" data-name="Контур 23" d="M25.3,53.024c5.538.626,5.915-2.679.886-4.212C13.708,45.008.28,35.66.28,35.66a10.12,10.12,0,0,0,.415,6.123C4.544,49.861,20.949,52.533,25.3,53.024Z" transform="translate(-0.004 -23.318)" fill="#fff"/>
        <path id="Контур_24" data-name="Контур 24" d="M29.857,87.013c3.288-.633,3.776-3.042.318-3.091C17.723,83.749,4,78.09,4,78.09a10.382,10.382,0,0,0,4.534,6.694C15.833,89.3,28.92,87.2,29.857,87.013Z" transform="translate(-2.617 -51.063)" fill="#fff"/>
        <path id="Контур_25" data-name="Контур 25" d="M44.45,113.983a12.692,12.692,0,0,0,5.811-4.174c1.011-1.343.495-2.942-1.108-2.264S42.865,110.84,30,111.031c1.346,1.817,4.648,4.229,7.375,4.229a20.458,20.458,0,0,0,7.074-1.277Z" transform="translate(-19.618 -70.218)" fill="#fff"/>
        <path id="Контур_26" data-name="Контур 26" d="M73.89,123.581c1.384.8,5.122,1.26,6.718.222,1.99-1.288,2.309-5.967,1.99-7.552s-1.277-.793-1.731,0C80.885,116.258,77.756,121.616,73.89,123.581Z" transform="translate(-48.318 -75.418)" fill="#fff"/>
        <path id="Контур_27" data-name="Контур 27" d="M60.813,37.8c-.315-.048-.6-.073-.889-.107-7.76-.872-8.14,3.115-10.608,3.115-2.873,0-4.226-4.226-4.565-12.172s-7.438-11.819-7.438-11.819l-1.1-.692L19.076,5.6S12.265,1.45,10.071,0c-.547,2.862-.27,7.3,2.668,9.691,6.559,5.372,10.383,6.271,15.319,9.061C39.2,25.037,39.9,27.813,40.653,33.081c.886,6.23,3.963,10.352,8.178,10.352,4.562,0,5.842-3.606,9.632-2.8v.031A26.934,26.934,0,0,1,22.468,51.075l-.052-.021a21.659,21.659,0,0,0,35.012-1.869h0c2.53-3.942,3.946-8.068,6.939-10.65a26,26,0,0,0-3.555-.73Z" transform="translate(-6.438)" fill="#fff"/>
        <path id="Контур_28" data-name="Контур 28" d="M203.481,59.153V52.494a17.863,17.863,0,0,0-.1-1.966l-.035-.291H196.68a8.674,8.674,0,0,0-1.429.093l-.291.069.042.294a12.754,12.754,0,0,1,.138,1.969v6.874c0,.3,0,1.194.858,1.194a2.737,2.737,0,0,0,1.076-.228l.377-.18L197.185,60a2.543,2.543,0,0,1-.08-.855V51.674h4.4c.017.346.024.658.024.99v6.874c0,.793.294,1.194.872,1.194a2.886,2.886,0,0,0,1.132-.228l.453-.215-.381-.325C203.481,59.866,203.481,59.382,203.481,59.153Z" transform="translate(-127.485 -32.849)" fill="#fff"/>
        <path id="Контур_29" data-name="Контур 29" d="M232.791,50c-2.893,0-4.911,2.222-4.911,5.4,0,3.049,1.938,5.192,4.714,5.192,2.9,0,4.925-2.219,4.925-5.4C237.519,52.142,235.574,50,232.791,50Zm2.662,5.316c0,2.281-1.1,3.807-2.731,3.807s-2.769-1.554-2.769-3.866,1.094-3.807,2.72-3.807,2.779,1.568,2.779,3.88Z" transform="translate(-149.011 -32.695)" fill="#fff"/>
        <path id="Контур_30" data-name="Контур 30" d="M259.739,63.178a2.333,2.333,0,0,0,.99-.232l.346-.19-.26-.312a2.423,2.423,0,0,1-.093-.851v-.914h7.147v1.308c0,.793.273,1.194.817,1.194a2.443,2.443,0,0,0,1.038-.232l.443-.218-.374-.322c-.111-.093-.111-.581-.111-.813V60.015a1.364,1.364,0,0,0-.266-.8l-.2-.267-.263.218a1.731,1.731,0,0,1-.609.076V52.494a17.064,17.064,0,0,0-.1-1.966l-.035-.291h-5.489a8.675,8.675,0,0,0-1.429.093L261,50.4l.042.294a12.705,12.705,0,0,1,.135,1.969v2.18c0,2.281-.363,3.852-1.021,4.427a8.966,8.966,0,0,0-.9.069l-.3.028v2.617C258.967,62.268,258.967,63.178,259.739,63.178Zm3.312-11.5h3.3c0,.346.024.654.024.99V59.24h-4.24a9.585,9.585,0,0,0,.938-4.69V52.494C263.072,52.21,263.065,51.94,263.051,51.674Z" transform="translate(-169.328 -32.849)" fill="#fff"/>
        <path id="Контур_31" data-name="Контур 31" d="M296.917,52.561v6.874c0,.793.294,1.194.872,1.194a2.994,2.994,0,0,0,1.128-.225l.467-.211-.391-.346c-.107-.1-.107-.581-.107-.817V52.35a17.65,17.65,0,0,0-.1-1.983l-.035-.287h-.291a6.31,6.31,0,0,0-1.447.152l-.273.08.042.28A12.66,12.66,0,0,1,296.917,52.561Z" transform="translate(-194.038 -32.746)" fill="#fff"/>
        <path id="Контур_32" data-name="Контур 32" d="M313.993,52.494v-.82h3.3c.017.346.017.637.017.99v6.874c0,.793.3,1.194.886,1.194a2.994,2.994,0,0,0,1.128-.225l.467-.211-.391-.346c-.121-.1-.121-.6-.121-.813V52.494a16.856,16.856,0,0,0-.09-1.966l-.031-.291h-5.513a8.69,8.69,0,0,0-1.433.093l-.291.069.042.294a12.749,12.749,0,0,1,.138,1.969v2.18c0,2.727-.6,4.562-1.492,4.562h-.325v.346a.938.938,0,0,0,.969,1c1.658,0,2.731-2.423,2.731-6.181Z" transform="translate(-202.895 -32.849)" fill="#fff"/>
        <path id="Контур_33" data-name="Контур 33" d="M353.943,57.267c0-1.907-1.485-3.191-3.7-3.191h-1.557v-1.7a17.138,17.138,0,0,0-.1-1.969l-.035-.287h-.291a7.362,7.362,0,0,0-1.433.135l-.291.069.045.294a12.653,12.653,0,0,1,.135,1.969v7a2.77,2.77,0,0,0,.149.9l.09.235.249-.028a16.3,16.3,0,0,1,1.976-.1h.869C352.379,60.6,353.943,59.261,353.943,57.267Zm-2,.073a1.68,1.68,0,0,1-1.755,1.824h-1.5V55.5h1.471a1.73,1.73,0,0,1,1.786,1.848Z" transform="translate(-226.602 -32.773)" fill="#fff"/>
        <path id="Контур_34" data-name="Контур 34" d="M382.427,58.917l.2-.284-.516-.294a.948.948,0,0,0-.453-.156,1.059,1.059,0,0,0-.64.3,3.319,3.319,0,0,1-2.281.692c-1.731,0-2.918-1.564-2.918-3.894,0-2.26,1.166-3.783,2.9-3.783a2.039,2.039,0,0,1,2,1.246l.083.208h.221c1.149,0,1.384-.464,1.384-.858,0-.851-1.384-2.045-3.638-2.045-3,0-5.022,2.187-5.022,5.444,0,3.115,1.914,5.133,4.884,5.133A4.659,4.659,0,0,0,382.427,58.917Z" transform="translate(-244.395 -32.727)" fill="#fff"/>
        <path id="Контур_35" data-name="Контур 35" d="M408.99,54.109h-1.557v-1.7a17.13,17.13,0,0,0-.1-1.952l-.035-.287H407a7.362,7.362,0,0,0-1.433.135l-.291.069.042.294a12.282,12.282,0,0,1,.138,1.969v6.984a2.767,2.767,0,0,0,.149.9l.09.235.249-.028a16.3,16.3,0,0,1,1.976-.1h.869c2.326,0,3.89-1.339,3.89-3.333C412.683,55.393,411.2,54.109,408.99,54.109Zm1.7,3.271a1.68,1.68,0,0,1-1.755,1.824h-1.5V55.531H408.9a1.731,1.731,0,0,1,1.782,1.848Z" transform="translate(-265.012 -32.806)" fill="#fff"/>
        <path id="Контур_36" data-name="Контур 36" d="M440.049,58.794l-3.4-3.676,2.461-2.6a22.986,22.986,0,0,0,1.547-1.917l.381-.519H440.4a10.71,10.71,0,0,0-1.346.073l-.125.017-.346.4c-.609.73-.945,1.135-1.468,1.692L435.27,54.2V52a8.255,8.255,0,0,0-.173-1.661l-.055-.26h-.266a5.649,5.649,0,0,0-1.384.152l-.28.076.042.284a12.348,12.348,0,0,1,.135,1.942v6.9c0,.793.294,1.194.876,1.194a2.357,2.357,0,0,0,1.038-.2l.318-.152-.177-.308a2.484,2.484,0,0,1-.083-.928V56.2l3.163,3.42a2.124,2.124,0,0,0,1.682,1.018,2.146,2.146,0,0,0,1.094-.253l.429-.3-.453-.256a5.012,5.012,0,0,1-1.125-1.042Z" transform="translate(-283.21 -32.746)" fill="#fff"/>
        <path id="Контур_37" data-name="Контур 37" d="M470.5,59.863c-.163-.111-.3-.346-.519-.91l-2.644-6.7c-.28-.692-.557-1.384-.848-1.952l-.09-.18h-.208a7.036,7.036,0,0,0-1.422.135l-.19.048-.048.19a15.159,15.159,0,0,1-.644,1.973l-2.714,6.884a2.278,2.278,0,0,0-.173.741.55.55,0,0,0,.606.564,2.713,2.713,0,0,0,1.038-.225l.19-.087v-.211a3.015,3.015,0,0,1,.26-.945l.547-1.454H467.4l.73,1.848c.294.744.671,1.073,1.225,1.073a2.658,2.658,0,0,0,1.125-.235l.467-.26Zm-3.665-3.554H464.2l1.3-3.413Z" transform="translate(-301.447 -32.773)" fill="#fff"/>
        <path id="Контур_38" data-name="Контур 38" d="M201.461,100.54l-.27.225a2.077,2.077,0,0,1-.869.093h-3.073a17.569,17.569,0,0,0-1.983.1l-.346.038.048.346a12.552,12.552,0,0,1,.135,1.966v6.863c0,.294,0,1.194.858,1.194a2.789,2.789,0,0,0,1.076-.228l.381-.18-.267-.325a2.531,2.531,0,0,1-.08-.851v-6.576c0-.3,0-.6-.024-.889h3.679c.346,0,1.18,0,1.18-.692a1.429,1.429,0,0,0-.242-.789Z" transform="translate(-127.459 -65.743)" fill="#fff"/>
        <path id="Контур_39" data-name="Контур 39" d="M224.647,101.46H222.83a7.718,7.718,0,0,0-1.429.132l-.291.069.042.3a12.586,12.586,0,0,1,.135,1.966v6.836c0,.294,0,1.194.858,1.194a2.79,2.79,0,0,0,1.076-.228l.381-.18-.266-.325a2.53,2.53,0,0,1-.08-.851v-2.423h1.191c2.291,0,3.89-1.384,3.89-3.319C228.34,102.765,226.824,101.46,224.647,101.46Zm-1.409,1.436h1.294a1.731,1.731,0,0,1,1.824,1.824,1.689,1.689,0,0,1-1.769,1.8h-1.322v-2.8C223.256,103.45,223.249,103.177,223.239,102.9Z" transform="translate(-144.584 -66.344)" fill="#fff"/>
        <path id="Контур_40" data-name="Контур 40" d="M252.2,101.26c-2.893,0-4.911,2.219-4.911,5.4,0,3.046,1.938,5.192,4.714,5.192,2.9,0,4.925-2.222,4.925-5.4C256.929,103.389,254.984,101.26,252.2,101.26Zm2.661,5.316c0,2.277-1.1,3.807-2.731,3.807s-2.769-1.551-2.769-3.866,1.094-3.807,2.72-3.807S254.863,104.264,254.863,106.576Z" transform="translate(-161.703 -66.213)" fill="#fff"/>
        <path id="Контур_41" data-name="Контур 41" d="M292.63,110.232l-.938-6.7c-.093-.571-.208-1.239-.384-1.955l-.059-.249H290.9a10.425,10.425,0,0,0-1.343.062l-.225.028-.052.222a15.753,15.753,0,0,1-.588,2.032l-1.9,5.368-2.1-5.884a9.388,9.388,0,0,0-.786-1.651l-.093-.163h-.187a6.023,6.023,0,0,0-1.457.152l-.235.066v.246a17.7,17.7,0,0,1-.135,1.955v.035c-.3,2.077-1,6.953-1,7.241,0,.761.512.844.734.844a2.769,2.769,0,0,0,1.014-.225l.5-.228-.436-.329a.346.346,0,0,1-.042-.177,2.208,2.208,0,0,1,.038-.346l.734-5.372,2.1,5.607c.28.758.623,1.083,1.142,1.083a1.931,1.931,0,0,0,.983-.211l.17-.093v-.19a4.6,4.6,0,0,1,.273-.979l1.9-5.192.793,5.538c.1.765.44,1.153,1.007,1.153a2.817,2.817,0,0,0,1.139-.232l.474-.235-.422-.318C292.772,111,292.713,110.9,292.63,110.232Z" transform="translate(-183.609 -66.256)" fill="#fff"/>
        <path id="Контур_42" data-name="Контур 42" d="M330.524,110.162l-2.644-6.7c-.28-.692-.557-1.384-.848-1.952l-.09-.183h-.2a6.69,6.69,0,0,0-1.422.138l-.19.045-.048.19a15.159,15.159,0,0,1-.644,1.973l-2.714,6.884a2.316,2.316,0,0,0-.173.741.55.55,0,0,0,.606.568,2.686,2.686,0,0,0,1.038-.225l.194-.09v-.208a3.025,3.025,0,0,1,.26-.948l.547-1.45h3.741l.73,1.845c.294.744.671,1.076,1.225,1.076a2.641,2.641,0,0,0,1.121-.239l.471-.26-.446-.3A2.011,2.011,0,0,1,330.524,110.162Zm-3.146-2.655H324.74l1.3-3.4Z" transform="translate(-210.261 -66.259)" fill="#fff"/>
        <path id="Контур_43" data-name="Контур 43" d="M363.76,112.823v-1.578a1.353,1.353,0,0,0-.267-.8l-.2-.27-.263.218a1.73,1.73,0,0,1-.609.076v-6.735a17.09,17.09,0,0,0-.1-1.969l-.035-.287h-5.489a9.035,9.035,0,0,0-1.429.09l-.291.069.042.3a12.639,12.639,0,0,1,.135,1.966v2.18c0,2.284-.363,3.852-1.038,4.43a8.995,8.995,0,0,0-.9.066l-.3.028v2.617c0,.3,0,1.194.789,1.194a2.281,2.281,0,0,0,.99-.232l.346-.187-.26-.312a2.456,2.456,0,0,1-.093-.855v-.914h.055a4.734,4.734,0,0,1,.626,0h6.465v1.308c0,.793.273,1.194.817,1.194a2.489,2.489,0,0,0,1.038-.228l.443-.222-.374-.322A2.124,2.124,0,0,1,363.76,112.823Zm-6.631-9.916h3.3c0,.346.024.654.024.986v6.576h-4.24a9.576,9.576,0,0,0,.938-4.69v-2.045A5.423,5.423,0,0,0,357.129,102.907Z" transform="translate(-230.833 -66.355)" fill="#fff"/>
        <path id="Контур_44" data-name="Контур 44" d="M397.777,110.162l-2.644-6.7c-.28-.692-.557-1.384-.848-1.952l-.09-.183h-.2a6.678,6.678,0,0,0-1.419.138l-.19.045-.048.19a15.149,15.149,0,0,1-.644,1.973l-2.717,6.884a2.359,2.359,0,0,0-.173.741.55.55,0,0,0,.609.568,2.686,2.686,0,0,0,1.038-.225l.194-.09v-.208a3.091,3.091,0,0,1,.256-.948l.55-1.45h3.759l.73,1.845c.291.744.671,1.076,1.225,1.076a2.641,2.641,0,0,0,1.121-.239l.471-.26-.447-.3C398.134,110.962,397.992,110.716,397.777,110.162Zm-3.146-2.655h-2.648l1.3-3.4Z" transform="translate(-254.235 -66.259)" fill="#fff"/>
        <path id="Контур_45" data-name="Контур 45" d="M200.268,157.336a2.312,2.312,0,0,1-.6,1.661,2.513,2.513,0,0,1-1.682.716v2h-.741v-2a2.523,2.523,0,0,1-1.672-.72,2.359,2.359,0,0,1,1.7-4.025V153.1h.716v1.859a2.589,2.589,0,0,1,1.675.737A2.264,2.264,0,0,1,200.268,157.336Zm-4.5,0a1.546,1.546,0,0,0,1.512,1.758v-3.509a1.644,1.644,0,0,0-1.153.523,1.91,1.91,0,0,0-.374,1.229Zm3.731,0a1.527,1.527,0,0,0-1.5-1.731v3.5a1.555,1.555,0,0,0,1.478-1.769Z" transform="translate(-127.488 -100.111)" fill="#fff"/>
        <path id="Контур_46" data-name="Контур 46" d="M217.3,160.8a2.548,2.548,0,0,1-.571,1.765,2.028,2.028,0,0,1-1.582.637,2.115,2.115,0,0,1-1.111-.294,1.928,1.928,0,0,1-.748-.841,2.915,2.915,0,0,1-.26-1.267,2.533,2.533,0,0,1,.564-1.758,2.007,2.007,0,0,1,1.582-.63,1.969,1.969,0,0,1,1.551.644,2.506,2.506,0,0,1,.575,1.744Zm-3.489,0a2.173,2.173,0,0,0,.346,1.322,1.357,1.357,0,0,0,2.018,0,2.149,2.149,0,0,0,.346-1.322,2.052,2.052,0,0,0-.346-1.312,1.2,1.2,0,0,0-1.014-.44C214.263,159.05,213.813,159.632,213.813,160.8Z" transform="translate(-139.298 -103.584)" fill="#fff"/>
        <path id="Контур_47" data-name="Контур 47" d="M229.568,158.66v1.924h2.509V158.66h.758v4.617h-.758v-2.056h-2.509v2.056h-.758V158.66Z" transform="translate(-149.619 -103.747)" fill="#fff"/>
        <path id="Контур_48" data-name="Контур 48" d="M247.739,164.88h-.73V163.27h-3.215v1.606h-.723V162.63h.37a6.057,6.057,0,0,0,.869-1.8,7.68,7.68,0,0,0,.329-2.177h2.423v3.98h.671Zm-1.405-2.246v-3.381H245.3a7.748,7.748,0,0,1-.346,1.866,5.112,5.112,0,0,1-.727,1.516Z" transform="translate(-158.944 -103.741)" fill="#fff"/>
        <path id="Контур_49" data-name="Контур 49" d="M268.435,159.3h-2.077v3.977H265.6V158.66h2.821Z" transform="translate(-173.676 -103.747)" fill="#fff"/>
        <path id="Контур_50" data-name="Контур 50" d="M278.585,163.207a1.689,1.689,0,0,1-1.433-.671H277.1v.173c.021.218.031.415.031.585v1.9h-.755V158.5H277l.1.633h.031a1.623,1.623,0,0,1,.623-.547,1.851,1.851,0,0,1,.817-.17,1.679,1.679,0,0,1,1.384.626,3.369,3.369,0,0,1,0,3.527,1.7,1.7,0,0,1-1.374.637Zm-.128-4.153a1.18,1.18,0,0,0-.99.388,1.986,1.986,0,0,0-.315,1.215v.149a2.294,2.294,0,0,0,.312,1.353,1.177,1.177,0,0,0,1.011.419,1.038,1.038,0,0,0,.907-.471,2.274,2.274,0,0,0,.329-1.312,2.17,2.17,0,0,0-.329-1.294A1.08,1.08,0,0,0,278.457,159.054Z" transform="translate(-180.725 -103.587)" fill="#fff"/>
        <path id="Контур_51" data-name="Контур 51" d="M295.262,160.8a2.547,2.547,0,0,1-.571,1.765,2.028,2.028,0,0,1-1.582.637,2.115,2.115,0,0,1-1.111-.294,1.927,1.927,0,0,1-.748-.841,2.915,2.915,0,0,1-.26-1.267,2.547,2.547,0,0,1,.564-1.758,2.007,2.007,0,0,1,1.582-.63,1.969,1.969,0,0,1,1.551.644A2.506,2.506,0,0,1,295.262,160.8Zm-3.489,0a2.174,2.174,0,0,0,.346,1.322,1.353,1.353,0,0,0,2.014,0,2.149,2.149,0,0,0,.346-1.322,2.077,2.077,0,0,0-.346-1.312,1.218,1.218,0,0,0-1.018-.44C292.223,159.05,291.773,159.632,291.773,160.8Z" transform="translate(-190.276 -103.584)" fill="#fff"/>
        <path id="Контур_52" data-name="Контур 52" d="M309.248,162.557a9.548,9.548,0,0,1,.318-.948l1.2-2.949h.976v4.617h-.692V159.47c-.1.3-.215.626-.346.962l-1.142,2.845h-.613l-1.153-2.859c-.059-.135-.114-.284-.166-.443s-.111-.329-.163-.505v3.807h-.692V158.66h.945l1.166,2.838A9.271,9.271,0,0,1,309.248,162.557Z" transform="translate(-200.604 -103.747)" fill="#fff"/>
        <path id="Контур_53" data-name="Контур 53" d="M327.59,163.143l-.149-.654h-.031a1.949,1.949,0,0,1-.692.585,2.105,2.105,0,0,1-.865.156,1.513,1.513,0,0,1-1.069-.346,1.3,1.3,0,0,1-.388-1.011q0-1.4,2.219-1.471l.782-.031v-.27a1.125,1.125,0,0,0-.228-.779.931.931,0,0,0-.727-.249,2.163,2.163,0,0,0-.692.107,5.508,5.508,0,0,0-.613.246l-.232-.568a3.51,3.51,0,0,1,1.578-.4,1.817,1.817,0,0,1,1.246.37,1.533,1.533,0,0,1,.408,1.18v3.132Zm-1.561-.526a1.384,1.384,0,0,0,1-.346,1.263,1.263,0,0,0,.367-.973v-.419l-.692.031a2.443,2.443,0,0,0-1.156.253.758.758,0,0,0-.363.692.692.692,0,0,0,.218.554.907.907,0,0,0,.63.211Z" transform="translate(-212.12 -103.613)" fill="#fff"/>
        <path id="Контур_54" data-name="Контур 54" d="M342.382,164.919h-.734V163.31h-3.215v1.606h-.723v-2.246h.37a6.062,6.062,0,0,0,.872-1.782,7.8,7.8,0,0,0,.325-2.177H341.7v3.98h.675Zm-1.409-2.246v-3.381h-1.038a7.928,7.928,0,0,1-.346,1.865,5.112,5.112,0,0,1-.727,1.516Z" transform="translate(-220.828 -103.78)" fill="#fff"/>
        <path id="Контур_55" data-name="Контур 55" d="M354.533,158.66v2.821l-.031.817-.017.235,2.475-3.873h.931v4.617h-.71v-3.305l.021-.557-2.443,3.863h-.938V158.66Z" transform="translate(-231.363 -103.747)" fill="#fff"/>
      </g>
    </g>
  </g>
</svg>
